<svg xmlns="http://www.w3.org/2000/svg" viewBox="0 0 64 64">
  <defs>
    <linearGradient id="sky" x1="0%" y1="0%" x2="0%" y2="100%">
      <stop offset="0%" stop-color="#2a4f86"/>
      <stop offset="100%" stop-color="#183764"/>
    </linearGradient>
    <linearGradient id="type" x1="0%" y1="0%" x2="100%" y2="100%">
      <stop offset="0%" stop-color="#fffaf2"/>
      <stop offset="100%" stop-color="#f1deba"/>
    </linearGradient>
  </defs>
  <rect width="64" height="64" rx="16" fill="url(#sky)"/>
  <rect x="6" y="6" width="52" height="52" rx="14" fill="none" stroke="rgba(255,255,255,0.14)"/>
  <circle cx="32" cy="14" r="4.5" fill="#d7a347"/>
  <g fill="#d7a347" opacity="0.92">
    <path d="M32 6l1.3 4.1h-2.6z"/>
    <path d="M40 9.5l-3.6 2.3-.7-2.5z"/>
    <path d="M44 17l-4.2-.7 1.6-2z"/>
    <path d="M40 24.5l-4.3-1.4 1.8-1.9z"/>
    <path d="M32 28l-2.1-3.7h4.2z"/>
    <path d="M24 24.5l2.5-3.3 1.8 1.9z"/>
    <path d="M20 17l2.6-2.7 1.6 2z"/>
    <path d="M24 9.5l4.3-.2-.7 2.5z"/>
  </g>
  <rect x="12" y="20" width="40" height="26" rx="8" fill="rgba(255,255,255,0.08)"/>
  <text
    x="50%"
    y="54%"
    text-anchor="middle"
    dominant-baseline="middle"
    font-family="'Cormorant Garamond', serif"
    font-size="22"
    font-style="italic"
    font-weight="700"
    letter-spacing="-0.9"
    fill="url(#type)">DHC</text>
</svg>
